<svg width="438" height="362" viewBox="0 0 438 362" fill="none" xmlns="http://www.w3.org/2000/svg">
<path d="M0 266.781C6.7842 274.799 14.1221 282.334 21.9599 289.331L318.388 290.11C326.226 283.113 333.564 275.578 340.348 267.56L0 266.781Z" fill="#D3D3D3"/>
<path d="M149.698 191.372V271.259H205.809V191.372C205.81 190.797 205.626 190.238 205.284 189.775C204.943 189.312 204.461 188.971 203.911 188.802C203.651 188.716 203.38 188.674 203.107 188.677H152.408C152.053 188.676 151.701 188.745 151.372 188.881C151.044 189.016 150.745 189.214 150.493 189.464C150.242 189.715 150.042 190.012 149.905 190.339C149.769 190.667 149.699 191.018 149.698 191.372ZM171.596 218.822C171.611 217.247 172.248 215.742 173.37 214.633C174.492 213.525 176.007 212.903 177.586 212.903C179.164 212.903 180.679 213.525 181.801 214.633C182.923 215.742 183.56 217.247 183.575 218.822V228.091C183.567 229.67 182.933 231.182 181.81 232.296C180.688 233.41 179.169 234.035 177.586 234.035C176.002 234.035 174.483 233.41 173.361 232.296C172.238 231.182 171.604 229.67 171.596 228.091V218.822Z" fill="#3A3A3A"/>
<path d="M149.525 268.705V276.408C149.527 276.807 149.686 277.19 149.968 277.473C150.25 277.756 150.633 277.916 151.033 277.919H204.472C204.873 277.917 205.256 277.757 205.538 277.474C205.821 277.191 205.979 276.808 205.979 276.408V268.705H149.525Z" fill="#D3D3D3"/>
<path d="M61.4287 71.0119V216.875C61.4302 218.734 62.1712 220.516 63.4889 221.83C64.8067 223.145 66.5935 223.884 68.4571 223.885H285.167C287.031 223.884 288.818 223.145 290.135 221.83C291.453 220.516 292.194 218.734 292.196 216.875V71.0119C292.191 69.1547 291.449 67.3749 290.132 66.0624C288.814 64.7499 287.029 64.0116 285.167 64.0093H68.4571C66.5952 64.0116 64.81 64.7499 63.4927 66.0624C62.1753 67.3749 61.4332 69.1547 61.4287 71.0119Z" fill="#A2903E"/>
<path d="M66.5127 72.8267V215.075C66.5144 216.069 66.9107 217.021 67.6148 217.723C68.3189 218.425 69.2733 218.82 70.269 218.822H283.363C284.359 218.82 285.313 218.425 286.018 217.723C286.722 217.021 287.118 216.069 287.12 215.075V72.8267C287.12 71.8324 286.724 70.8786 286.02 70.1748C285.316 69.4709 284.36 69.0744 283.363 69.0723H70.269C69.2721 69.0744 68.3167 69.4709 67.6125 70.1748C66.9083 70.8786 66.5128 71.8324 66.5127 72.8267Z" fill="black"/>
<path d="M109.963 279.734C110.18 280.006 110.456 280.224 110.769 280.374C111.083 280.524 111.427 280.601 111.775 280.599H238.552C238.899 280.599 239.241 280.521 239.554 280.372C239.867 280.223 240.143 280.007 240.361 279.738C240.579 279.469 240.735 279.156 240.817 278.819C240.898 278.483 240.904 278.133 240.832 277.795L238.864 268.471C238.783 268.091 238.607 267.737 238.354 267.442C238.1 267.147 237.776 266.919 237.412 266.781C237.148 266.678 236.867 266.625 236.584 266.625H113.735C113.452 266.625 113.171 266.678 112.907 266.781C112.543 266.919 112.219 267.147 111.965 267.442C111.712 267.737 111.536 268.091 111.455 268.471L109.487 277.795C109.417 278.133 109.423 278.483 109.505 278.818C109.588 279.154 109.744 279.467 109.963 279.734Z" fill="#3A3A3A"/>
<path d="M113.736 268.573C113.698 268.572 113.659 268.579 113.623 268.593C113.561 268.614 113.505 268.65 113.461 268.698C113.416 268.746 113.384 268.804 113.367 268.867L111.398 278.196C111.388 278.25 111.39 278.306 111.403 278.359C111.417 278.412 111.442 278.462 111.478 278.504L111.486 278.515C111.52 278.559 111.564 278.594 111.615 278.618C111.665 278.642 111.72 278.654 111.776 278.652H238.553C238.609 278.652 238.664 278.641 238.714 278.617C238.764 278.593 238.808 278.559 238.842 278.516C238.879 278.474 238.906 278.424 238.921 278.371C238.935 278.317 238.937 278.26 238.925 278.206L236.955 268.872C236.941 268.811 236.912 268.754 236.87 268.707C236.829 268.659 236.777 268.623 236.718 268.6C236.676 268.582 236.631 268.573 236.585 268.573H113.736Z" fill="white"/>
<path d="M77.1203 88.6677H276.512C276.719 88.6632 276.916 88.5778 277.061 88.4299C277.206 88.282 277.287 88.0834 277.287 87.8766C277.287 87.6698 277.206 87.4711 277.061 87.3233C276.916 87.1754 276.719 87.09 276.512 87.0854H77.1203C76.913 87.09 76.7158 87.1754 76.5708 87.3233C76.4259 87.4711 76.3447 87.6698 76.3447 87.8766C76.3447 88.0834 76.4259 88.282 76.5708 88.4299C76.7158 88.5778 76.913 88.6632 77.1203 88.6677Z" fill="#D3D3D3"/>
<path d="M262.939 83.0478C265.505 83.0478 267.586 80.9264 267.586 78.3096C267.586 75.6927 265.505 73.5713 262.939 73.5713C260.372 73.5713 258.292 75.6927 258.292 78.3096C258.292 80.9264 260.372 83.0478 262.939 83.0478Z" fill="#D3D3D3"/>
<path d="M246.886 83.0478C249.453 83.0478 251.533 80.9264 251.533 78.3096C251.533 75.6927 249.453 73.5713 246.886 73.5713C244.32 73.5713 242.239 75.6927 242.239 78.3096C242.239 80.9264 244.32 83.0478 246.886 83.0478Z" fill="#D3D3D3"/>
<path d="M230.832 83.0478C233.399 83.0478 235.479 80.9264 235.479 78.3096C235.479 75.6927 233.399 73.5713 230.832 73.5713C228.266 73.5713 226.186 75.6927 226.186 78.3096C226.186 80.9264 228.266 83.0478 230.832 83.0478Z" fill="#D3D3D3"/>
<path d="M85.9365 75.6076C85.936 75.7196 85.9576 75.8307 86.0001 75.9344C86.0426 76.0381 86.1051 76.1325 86.1842 76.2121C86.2632 76.2917 86.3572 76.355 86.4608 76.3983C86.5644 76.4417 86.6755 76.4642 86.7878 76.4647H98.1894C98.4148 76.4595 98.6292 76.3664 98.7868 76.2055C98.9443 76.0446 99.0325 75.8286 99.0325 75.6037C99.0325 75.3787 98.9443 75.1627 98.7868 75.0018C98.6292 74.8409 98.4148 74.7479 98.1894 74.7427H86.7878C86.5601 74.7454 86.3429 74.8379 86.1834 75C86.0239 75.162 85.9352 75.3805 85.9365 75.6076Z" fill="#D3D3D3"/>
<path d="M85.9365 78.8405C85.936 78.9525 85.9576 79.0636 86.0001 79.1673C86.0426 79.2711 86.1051 79.3654 86.1842 79.445C86.2632 79.5246 86.3572 79.5879 86.4608 79.6312C86.5643 79.6746 86.6755 79.6971 86.7878 79.6976H98.1894C98.415 79.6926 98.6297 79.5997 98.7874 79.4388C98.9452 79.2779 99.0335 79.0617 99.0335 78.8366C99.0335 78.6115 98.9452 78.3953 98.7874 78.2344C98.6297 78.0735 98.415 77.9806 98.1894 77.9756H86.7878C86.5601 77.9783 86.3429 78.0708 86.1834 78.2329C86.0239 78.3949 85.9352 78.6134 85.9365 78.8405Z" fill="#D3D3D3"/>
<path d="M85.9365 82.0651C85.9352 82.2922 86.0239 82.5107 86.1834 82.6727C86.3429 82.8348 86.5601 82.9273 86.7878 82.93H98.1894C98.4148 82.9248 98.6292 82.8318 98.7868 82.6709C98.9443 82.51 99.0325 82.294 99.0325 82.069C99.0325 81.8441 98.9443 81.6281 98.7868 81.4672C98.6292 81.3063 98.4148 81.2132 98.1894 81.208H86.7878C86.6755 81.2085 86.5643 81.2311 86.4608 81.2744C86.3572 81.3177 86.2632 81.381 86.1842 81.4606C86.1051 81.5402 86.0426 81.6346 86.0001 81.7383C85.9576 81.842 85.936 81.9531 85.9365 82.0651Z" fill="#D3D3D3"/>
<path d="M271.106 191.871C272.038 191.87 272.931 191.5 273.589 190.843C274.248 190.186 274.619 189.295 274.62 188.366V115.925C274.62 114.995 274.25 114.104 273.591 113.447C272.932 112.789 272.038 112.42 271.106 112.42C270.174 112.42 269.28 112.789 268.621 113.447C267.962 114.104 267.592 114.995 267.592 115.925V188.366C267.593 189.295 267.964 190.186 268.623 190.843C269.281 191.5 270.174 191.87 271.106 191.871Z" fill="#D3D3D3"/>
<path d="M271.106 191.871C272.038 191.87 272.931 191.5 273.589 190.843C274.248 190.186 274.619 189.295 274.62 188.366V173.005C274.215 172.455 273.686 172.007 273.076 171.699C272.465 171.39 271.79 171.229 271.106 171.229C270.422 171.229 269.747 171.39 269.136 171.699C268.526 172.007 267.997 172.455 267.592 173.005V188.366C267.593 189.295 267.964 190.186 268.623 190.843C269.281 191.5 270.174 191.87 271.106 191.871Z" fill="#3A3A3A"/>
<path d="M271.106 177.072C272.108 177.07 273.068 176.673 273.776 175.966C274.485 175.259 274.884 174.301 274.885 173.302V156.782C274.45 156.19 273.881 155.709 273.224 155.377C272.567 155.045 271.842 154.872 271.106 154.872C270.37 154.872 269.644 155.045 268.987 155.377C268.331 155.709 267.762 156.19 267.326 156.782V173.302C267.328 174.301 267.726 175.259 268.435 175.966C269.143 176.673 270.104 177.07 271.106 177.072Z" fill="#F7DB5F"/>
<path d="M271.105 174.068C271.836 174.067 272.537 173.777 273.053 173.261C273.57 172.746 273.861 172.047 273.862 171.318V159.269C273.544 158.837 273.129 158.486 272.65 158.244C272.172 158.002 271.642 157.876 271.105 157.876C270.568 157.876 270.039 158.002 269.56 158.244C269.081 158.486 268.666 158.837 268.349 159.269V171.318C268.35 172.047 268.641 172.746 269.157 173.261C269.674 173.777 270.374 174.067 271.105 174.068Z" fill="#D3D3D3"/>
<path d="M417.397 329.671C417.397 335.35 416.054 339.696 416.218 343.17C407.007 347.18 397.536 350.569 387.87 353.312C386.777 353.623 385.683 353.919 384.582 354.215C378.624 336.02 372.657 319.358 370.307 317.59C364.926 313.563 362.232 330.224 362.232 326.197C362.232 322.17 364.926 322.17 358.202 316.803C351.471 311.437 355.508 287.282 355.508 287.282L346.09 263.127L356.625 224.601L370.307 174.555H383.762C383.762 174.555 384.161 174.843 384.824 175.38C388.19 178.122 398.342 187.282 397.218 197.37C396.882 200.376 397.632 209.116 398.936 220.753C402.903 255.891 412.017 294.09 412.017 304.169C412.017 317.59 417.397 321.617 417.397 329.671Z" fill="#E6E6E6"/>
<path d="M406.114 220.622C406.099 220.583 406.091 220.552 406.075 220.521C405.774 219.71 405.422 218.92 405.021 218.153C402.749 213.892 405.154 207.349 402.592 200.121C398.454 188.406 393.409 181.496 386.013 175.304C385.794 175.117 385.576 174.938 385.349 174.751L385.342 174.743C380.406 170.7 374.455 166.923 367.068 162.218C365.529 161.236 363.92 160.216 362.249 159.141C360.094 157.762 360.211 153.167 360.336 148.306C360.476 142.908 360.625 137.315 357.97 133.826L357.798 133.6L357.524 133.53C348.421 131.734 339.136 131.02 329.864 131.403H329.856C325.919 131.549 322.01 132.121 318.197 133.109C317.915 133.187 317.634 133.265 317.361 133.358C317.15 133.413 316.939 133.483 316.728 133.553L316.557 133.615L316.424 133.74C313.855 136.303 313.261 140.898 312.98 145.689V145.697C312.925 146.569 312.878 147.442 312.839 148.314C312.621 152.972 312.418 157.373 310.7 159.281C306.867 163.612 302.235 167.166 297.057 169.75C288.989 173.723 282.609 173.598 282.515 173.598L281.774 173.575L281.703 174.307C276.346 184.488 276.549 210.753 276.385 238.88C276.377 240.446 276.367 242.019 276.354 243.601C276.26 256.702 276.01 270.03 275.026 282.173C274.597 287.392 274.042 292.385 273.3 297.051C269.692 319.773 253.348 300.907 245.53 316.026C245.787 317.513 246.22 318.964 246.819 320.349C247.717 320.879 248.638 321.393 249.552 321.907C253.605 324.158 257.734 326.258 261.938 328.208C262.172 328.317 262.406 328.426 262.641 328.528C270.352 332.086 278.3 335.111 286.428 337.579C288.013 338.062 289.599 338.521 291.2 338.958C305.361 342.857 319.942 345.035 334.628 345.446C334.687 345.439 334.747 345.437 334.807 345.438C352.174 344.959 369.428 342.479 386.224 338.046C386.458 337.984 386.693 337.922 386.927 337.859C388.028 337.563 389.121 337.267 390.215 336.956C399.881 334.212 409.352 330.824 418.563 326.814C418.572 327.156 418.606 327.497 418.664 327.834C418.672 327.944 418.688 328.054 418.711 328.162C418.727 328.037 418.742 327.912 418.75 327.788C418.797 327.422 418.836 327.048 418.875 326.674C423.654 280.187 413.729 240.719 406.114 220.622Z" fill="#D3D3D3"/>
<path d="M298.787 106.69C303.554 115.383 311.146 122.198 320.315 126.013C329.483 129.827 339.68 130.413 349.227 127.675C358.774 124.937 367.102 119.037 372.838 110.948C378.575 102.858 381.378 93.0612 380.787 83.1703C380.195 73.2794 376.244 63.8843 369.584 56.5323C362.925 49.1802 353.953 44.3097 344.147 42.7227C334.342 41.1357 324.286 42.9269 315.638 47.8014C306.989 52.6758 300.262 60.3428 296.566 69.5397C296.366 70.0388 296.185 70.5379 296.005 71.0569C293.916 76.8546 293.083 83.0286 293.562 89.171C294.042 95.3135 295.823 101.284 298.787 106.69Z" fill="#FFB6B6"/>
<path d="M292.502 71.0567C294.384 65.8066 293.563 68.5414 295.464 63.3113C294.223 67.9425 296.185 70.5376 296.005 71.0567H348.06V40.8736C332.81 34.845 317.9 29.7146 308.894 40.8736C300.868 40.874 293.171 44.0541 287.496 49.7144C281.821 55.3748 278.633 63.0517 278.633 71.0567H292.502Z" fill="#3A3A3A"/>
<path d="M310.955 154.958C310.995 154.399 311.055 153.82 311.135 153.261C311.696 149.149 313.097 145.197 314.518 141.284C316.019 137.072 317.54 132.84 319.061 128.628C317.102 136.274 317.699 144.348 320.762 151.624C329.548 144.797 324.004 129.187 335.492 129.187C363.111 129.187 391.53 106.849 391.53 79.281C391.53 51.7329 379.682 31.1318 352.063 31.1318C324.424 31.1318 302.009 43.7479 301.469 71.2961C335.492 79.281 304.531 152.164 310.955 154.958Z" fill="#3A3A3A"/>
<path d="M388.08 75.0587C405.765 75.0587 420.101 60.7587 420.101 43.1189C420.101 25.4791 405.765 11.1792 388.08 11.1792C370.394 11.1792 356.058 25.4791 356.058 43.1189C356.058 60.7587 370.394 75.0587 388.08 75.0587Z" fill="#3A3A3A"/>
<path d="M437.999 226.293C437.89 227.936 437.794 229.686 437.711 231.543C436.055 266.509 437.484 313.58 426.324 339.121C423.826 340.484 421.301 341.788 418.749 343.031C418.648 343.078 418.554 343.125 418.468 343.171C417.781 343.506 417.094 343.834 416.407 344.145C416.382 344.167 416.352 344.183 416.321 344.192C408.774 347.748 400.997 350.796 393.041 353.313C392.065 353.625 391.081 353.921 390.097 354.217C389.886 354.279 389.675 354.341 389.464 354.404C374.476 358.825 358.98 361.309 343.358 361.796C342.546 361.819 341.749 361.835 340.976 361.85C340.703 361.858 340.437 361.866 340.172 361.866C339.297 361.874 338.43 361.881 337.556 361.881C335.791 361.881 334.034 361.855 332.284 361.804C317.599 361.393 303.017 359.214 288.856 355.315C287.255 354.879 285.67 354.419 284.085 353.936C275.956 351.468 268.008 348.444 260.297 344.885C260.063 344.784 259.829 344.675 259.595 344.566C255.393 342.618 251.264 340.518 247.209 338.264C246.295 337.75 245.374 337.236 244.476 336.706C243.876 335.321 243.444 333.87 243.187 332.383C241.414 323.885 239.993 329.618 238.978 311.936C238.048 295.727 237.455 279.47 237.236 270.178C237.166 267.701 237.143 265.714 237.135 264.359C237.963 258.455 251.27 251.756 270.676 245.392C272.511 244.792 274.409 244.193 276.353 243.601C281.601 241.988 287.208 240.407 293.065 238.88C307.981 234.986 324.545 231.41 340.984 228.458C349.098 227.009 357.18 225.708 365.029 224.602C378.797 222.655 391.823 221.307 402.967 220.754C404.037 220.7 405.083 220.653 406.114 220.622C407.223 220.575 408.308 220.544 409.37 220.521C425.426 220.17 436.391 221.837 437.999 226.293Z" fill="#3A3A3A"/>
<path opacity="0.2" d="M438 226.293C437.89 227.936 437.794 229.686 437.711 231.543C425.544 218.472 294.471 276.861 238.978 311.936C238.048 295.727 237.455 279.47 237.236 270.178C237.166 267.701 237.143 265.714 237.135 264.359C237.963 258.455 251.27 251.756 270.676 245.392C272.511 244.792 274.409 244.193 276.353 243.601C281.601 241.988 287.208 240.407 293.065 238.88C307.981 234.985 324.545 231.41 340.984 228.458C349.098 227.009 357.18 225.708 365.029 224.602C378.797 222.655 391.823 221.307 402.967 220.754C404.037 220.7 405.083 220.653 406.114 220.622C407.223 220.575 408.308 220.544 409.37 220.521C425.426 220.17 436.391 221.837 438 226.293Z" fill="black"/>
<path d="M171.442 266.807C172.671 268.353 174.225 269.611 175.994 270.493C177.763 271.374 179.705 271.859 181.682 271.911C183.659 271.963 185.624 271.583 187.438 270.796C189.251 270.009 190.87 268.835 192.18 267.357L236.653 285.575L231.854 261.12L190.357 247.568C187.721 245.539 184.431 244.543 181.108 244.772C177.786 245 174.664 246.436 172.332 248.808C170 251.179 168.622 254.321 168.458 257.639C168.294 260.956 169.355 264.218 171.442 266.807Z" fill="#FFB6B6"/>
<path d="M319.378 164.969L319.134 164.943L293.2 166.821C289.907 167.059 286.703 167.993 283.8 169.561C280.897 171.129 278.362 173.295 276.362 175.915C275.433 177.129 274.628 178.433 273.961 179.808L273.954 179.812C271.718 184.375 271.044 189.543 272.036 194.524L284.245 255.828L254.868 253.166L244.144 254.994L231.489 249.902L205.522 250.342L204.92 252.327L199.473 270.339L199.045 271.754L238.697 296.677L250.193 293.189L255.609 297.339L255.869 297.346L266.608 297.557L312.409 298.453L324.928 276.33L326.884 272.862C341.424 240.373 345.012 217.693 343.874 202.068C343.277 193.813 341.363 187.537 339.047 182.808C331.884 168.193 319.882 165.092 319.378 164.969Z" fill="#D3D3D3"/>
<path d="M392.129 71.4756C386.057 70.114 380.427 67.2453 375.762 63.1355C371.097 59.0257 367.547 53.8077 365.442 47.9652C363.563 42.5299 362.854 36.5615 359.701 31.7243C364.505 25.1438 368.357 17.9222 371.145 10.2716C372.224 7.30973 374.751 1.93298 370.467 0.303659C367.054 -0.99444 363.177 2.13856 361.154 4.6107C359.617 6.48401 358.514 8.67343 357.926 11.0219C357.228 7.94894 356.53 4.87598 355.833 1.803C355.744 1.50816 355.545 1.25879 355.276 1.10679C355.008 0.954791 354.691 0.911865 354.392 0.986937C348.674 1.95922 344.527 7.24008 343.807 12.8023C343.414 15.6659 344.067 18.575 345.647 20.9979C347.484 23.7851 350.173 25.7833 352.733 27.8604C355.455 30.0692 357.762 32.4218 359.226 35.6519C360.747 39.0091 361.432 42.683 362.441 46.2083C364.356 52.979 368.067 59.109 373.182 63.9525C378.297 68.7959 384.628 72.1733 391.507 73.7289C392.976 74.0493 393.604 71.797 392.129 71.4756ZM359.84 15.614C359.656 12.6786 360.434 9.76313 362.056 7.30702C362.868 6.06164 363.885 4.96238 365.065 4.05584C366.183 3.20345 367.833 2.07461 369.313 2.38772C371.233 2.79383 370.461 4.93081 370.053 6.21949C369.515 7.9197 368.924 9.60182 368.279 11.2659C367.023 14.4974 365.565 17.6472 363.914 20.6967C363.056 22.284 362.14 23.8378 361.183 25.366C360.523 22.4611 359.864 19.5562 359.204 16.6513C359.412 16.5753 359.588 16.4315 359.703 16.2432C359.819 16.0549 359.867 15.8331 359.84 15.614ZM346.158 16.079C345.775 13.4246 346.331 10.72 347.73 8.4299C349.129 6.13979 351.284 4.40724 353.825 3.52997C355.684 11.7193 357.544 19.9087 359.403 28.0981C359.019 28.6626 358.624 29.2187 358.227 29.7743C358.123 29.655 358.028 29.5317 357.92 29.4144C354.019 25.1806 347.218 22.2946 346.158 16.079Z" fill="#F7DB5F"/>
<path d="M185.687 102.923H237.898V103.096H185.687V102.923Z" fill="white"/>
<path d="M116.072 102.923H168.283V103.096H116.072V102.923Z" fill="white"/>
<path d="M116.072 122.1H237.898V121.928H116.072V122.1Z" fill="white"/>
<path d="M116.072 141.105H237.898V140.932H116.072V141.105Z" fill="white"/>
<path d="M116.072 176.869H237.898V177.041H116.072V176.869Z" fill="white"/>
<path d="M118.244 98.777H120.562V99.175H118.244V98.777ZM118.294 101.022H117.831V96.6685H120.838V97.0665H118.294V101.022Z" fill="#A2903E" fill-opacity="0.53"/>
<path d="M122.046 101.022V97.7569H122.491V101.022H122.046ZM122.272 97.0354C122.18 97.0354 122.103 97.0043 122.04 96.9421C121.977 96.8799 121.946 96.8053 121.946 96.7182C121.946 96.6311 121.977 96.5586 122.04 96.5005C122.103 96.4383 122.18 96.4072 122.272 96.4072C122.364 96.4072 122.441 96.4363 122.504 96.4943C122.566 96.5524 122.597 96.6249 122.597 96.712C122.597 96.8032 122.566 96.8799 122.504 96.9421C122.445 97.0043 122.368 97.0354 122.272 97.0354Z" fill="#A2903E" fill-opacity="0.53"/>
<path d="M124.073 101.022V97.7569H124.499V98.6463L124.456 98.4908C124.547 98.2421 124.702 98.0534 124.919 97.9248C125.136 97.7922 125.406 97.7258 125.727 97.7258V98.155C125.711 98.155 125.694 98.155 125.677 98.155C125.661 98.1508 125.644 98.1488 125.627 98.1488C125.28 98.1488 125.009 98.2545 124.813 98.466C124.616 98.6733 124.518 98.9698 124.518 99.3554V101.022H124.073Z" fill="#A2903E" fill-opacity="0.53"/>
<path d="M127.804 101.053C127.532 101.053 127.275 101.016 127.033 100.941C126.791 100.863 126.601 100.765 126.463 100.649L126.664 100.301C126.797 100.4 126.968 100.487 127.177 100.562C127.386 100.633 127.605 100.668 127.835 100.668C128.148 100.668 128.374 100.62 128.512 100.525C128.65 100.425 128.719 100.295 128.719 100.133C128.719 100.013 128.679 99.9193 128.599 99.853C128.524 99.7825 128.424 99.7306 128.299 99.6975C128.173 99.6602 128.034 99.6291 127.879 99.6042C127.724 99.5793 127.57 99.5503 127.415 99.5171C127.265 99.4839 127.127 99.4362 127.002 99.374C126.877 99.3077 126.774 99.2186 126.695 99.1066C126.62 98.9946 126.582 98.8454 126.582 98.6588C126.582 98.4805 126.632 98.3208 126.732 98.1799C126.833 98.0389 126.979 97.929 127.171 97.8502C127.367 97.7673 127.605 97.7258 127.885 97.7258C128.098 97.7258 128.311 97.7548 128.524 97.8129C128.737 97.8668 128.913 97.9394 129.051 98.0306L128.856 98.3851C128.71 98.2856 128.554 98.2151 128.386 98.1736C128.219 98.128 128.052 98.1052 127.885 98.1052C127.589 98.1052 127.369 98.157 127.227 98.2607C127.09 98.3602 127.021 98.4888 127.021 98.6463C127.021 98.7707 127.058 98.8682 127.133 98.9387C127.213 99.0092 127.315 99.0651 127.44 99.1066C127.57 99.1439 127.71 99.175 127.86 99.1999C128.015 99.2248 128.167 99.2559 128.318 99.2932C128.472 99.3264 128.612 99.374 128.737 99.4362C128.867 99.4943 128.969 99.5793 129.044 99.6913C129.124 99.7991 129.163 99.9421 129.163 100.12C129.163 100.311 129.109 100.477 129 100.618C128.896 100.755 128.742 100.863 128.537 100.941C128.336 101.016 128.092 101.053 127.804 101.053Z" fill="#A2903E" fill-opacity="0.53"/>
<path d="M131.364 101.053C131.055 101.053 130.817 100.97 130.65 100.805C130.483 100.639 130.399 100.404 130.399 100.102V97.0354H130.844V100.077C130.844 100.268 130.892 100.415 130.988 100.518C131.089 100.622 131.231 100.674 131.414 100.674C131.611 100.674 131.774 100.618 131.903 100.506L132.06 100.823C131.972 100.902 131.866 100.96 131.74 100.997C131.619 101.035 131.494 101.053 131.364 101.053ZM129.81 98.1239V97.7569H131.847V98.1239H129.81Z" fill="#A2903E" fill-opacity="0.53"/>
<path d="M118.244 117.62H120.562V118.012H118.244V117.62ZM118.294 119.629H120.932V120.027H117.831V115.673H120.838V116.071H118.294V119.629Z" fill="#A2903E" fill-opacity="0.5"/>
<path d="M126.383 116.731C126.65 116.731 126.882 116.782 127.078 116.886C127.279 116.986 127.433 117.139 127.542 117.346C127.654 117.554 127.711 117.815 127.711 118.13V120.027H127.266V118.174C127.266 117.829 127.182 117.57 127.015 117.396C126.852 117.218 126.621 117.129 126.32 117.129C126.094 117.129 125.898 117.176 125.731 117.272C125.568 117.363 125.441 117.498 125.349 117.676C125.261 117.85 125.217 118.062 125.217 118.31V120.027H124.772V118.174C124.772 117.829 124.689 117.57 124.522 117.396C124.355 117.218 124.121 117.129 123.82 117.129C123.599 117.129 123.404 117.176 123.237 117.272C123.07 117.363 122.941 117.498 122.849 117.676C122.761 117.85 122.717 118.062 122.717 118.31V120.027H122.273V116.762H122.699V117.645L122.63 117.489C122.73 117.253 122.891 117.069 123.112 116.936C123.338 116.799 123.603 116.731 123.908 116.731C124.229 116.731 124.503 116.811 124.729 116.973C124.954 117.131 125.1 117.369 125.167 117.688L124.992 117.62C125.088 117.355 125.257 117.141 125.499 116.979C125.746 116.814 126.04 116.731 126.383 116.731Z" fill="#A2903E" fill-opacity="0.5"/>
<path d="M131.323 120.027V119.306L131.304 119.187V117.981C131.304 117.703 131.225 117.489 131.066 117.34C130.912 117.191 130.68 117.116 130.371 117.116C130.158 117.116 129.955 117.151 129.763 117.222C129.571 117.292 129.408 117.386 129.274 117.502L129.074 117.172C129.241 117.031 129.441 116.923 129.675 116.849C129.909 116.77 130.156 116.731 130.415 116.731C130.841 116.731 131.169 116.836 131.398 117.048C131.632 117.255 131.749 117.572 131.749 117.999V120.027H131.323ZM130.189 120.058C129.943 120.058 129.728 120.019 129.544 119.94C129.364 119.857 129.226 119.745 129.13 119.604C129.034 119.459 128.986 119.293 128.986 119.107C128.986 118.937 129.026 118.783 129.105 118.646C129.189 118.505 129.322 118.393 129.506 118.31C129.694 118.223 129.945 118.18 130.258 118.18H131.392V118.509H130.271C129.953 118.509 129.732 118.565 129.606 118.677C129.485 118.789 129.425 118.928 129.425 119.094C129.425 119.281 129.498 119.43 129.644 119.542C129.79 119.654 129.995 119.71 130.258 119.71C130.509 119.71 130.724 119.654 130.903 119.542C131.087 119.426 131.221 119.26 131.304 119.044L131.405 119.349C131.321 119.565 131.175 119.737 130.966 119.865C130.761 119.994 130.502 120.058 130.189 120.058Z" fill="#A2903E" fill-opacity="0.5"/>
<path d="M133.302 120.027V116.762H133.747V120.027H133.302ZM133.528 116.04C133.436 116.04 133.358 116.009 133.296 115.947C133.233 115.885 133.202 115.81 133.202 115.723C133.202 115.636 133.233 115.563 133.296 115.505C133.358 115.443 133.436 115.412 133.528 115.412C133.619 115.412 133.697 115.441 133.759 115.499C133.822 115.557 133.853 115.63 133.853 115.717C133.853 115.808 133.822 115.885 133.759 115.947C133.701 116.009 133.624 116.04 133.528 116.04Z" fill="#A2903E" fill-opacity="0.5"/>
<path d="M135.329 120.027V115.412H135.774V120.027H135.329Z" fill="#A2903E" fill-opacity="0.5"/>
<path d="M119.04 139.069C118.714 139.069 118.401 139.017 118.1 138.914C117.804 138.806 117.574 138.669 117.411 138.503L117.593 138.149C117.747 138.298 117.954 138.424 118.213 138.528C118.476 138.628 118.752 138.677 119.04 138.677C119.316 138.677 119.539 138.644 119.71 138.578C119.886 138.507 120.013 138.414 120.093 138.298C120.176 138.182 120.218 138.053 120.218 137.912C120.218 137.742 120.168 137.605 120.067 137.502C119.971 137.398 119.844 137.317 119.685 137.259C119.527 137.197 119.351 137.143 119.159 137.097C118.967 137.052 118.775 137.004 118.583 136.954C118.39 136.901 118.213 136.83 118.05 136.743C117.891 136.656 117.762 136.542 117.662 136.401C117.566 136.256 117.517 136.067 117.517 135.835C117.517 135.619 117.574 135.422 117.687 135.244C117.804 135.062 117.981 134.916 118.219 134.809C118.457 134.697 118.762 134.641 119.134 134.641C119.38 134.641 119.625 134.676 119.867 134.746C120.109 134.813 120.318 134.906 120.494 135.026L120.337 135.393C120.149 135.269 119.948 135.178 119.735 135.12C119.527 135.062 119.324 135.033 119.128 135.033C118.865 135.033 118.647 135.068 118.476 135.138C118.305 135.209 118.177 135.304 118.094 135.424C118.015 135.54 117.975 135.673 117.975 135.822C117.975 135.992 118.023 136.129 118.119 136.233C118.219 136.337 118.349 136.417 118.507 136.476C118.67 136.534 118.848 136.585 119.04 136.631C119.232 136.677 119.422 136.726 119.61 136.78C119.802 136.834 119.978 136.905 120.136 136.992C120.299 137.075 120.429 137.187 120.525 137.328C120.625 137.469 120.675 137.653 120.675 137.881C120.675 138.093 120.617 138.29 120.5 138.472C120.383 138.65 120.203 138.795 119.961 138.907C119.723 139.015 119.416 139.069 119.04 139.069Z" fill="#A2903E" fill-opacity="0.5"/>
<path d="M123.296 139.063C123.016 139.063 122.771 139.011 122.563 138.907C122.354 138.804 122.191 138.648 122.074 138.441C121.961 138.234 121.905 137.974 121.905 137.663V135.766H122.35V137.614C122.35 137.962 122.435 138.225 122.606 138.404C122.782 138.578 123.026 138.665 123.339 138.665C123.569 138.665 123.768 138.619 123.935 138.528C124.106 138.433 124.235 138.296 124.323 138.118C124.415 137.939 124.461 137.726 124.461 137.477V135.766H124.906V139.032H124.48V138.136L124.549 138.298C124.444 138.538 124.281 138.727 124.06 138.864C123.843 138.997 123.588 139.063 123.296 139.063Z" fill="#A2903E" fill-opacity="0.5"/>
<path d="M128.188 139.063C127.9 139.063 127.641 138.999 127.411 138.87C127.181 138.737 127 138.547 126.866 138.298C126.732 138.049 126.666 137.749 126.666 137.396C126.666 137.039 126.732 136.739 126.866 136.494C127.004 136.245 127.188 136.057 127.417 135.928C127.647 135.8 127.904 135.735 128.188 135.735C128.501 135.735 128.781 135.806 129.028 135.947C129.278 136.084 129.475 136.276 129.617 136.525C129.759 136.774 129.83 137.064 129.83 137.396C129.83 137.724 129.759 138.014 129.617 138.267C129.475 138.516 129.278 138.71 129.028 138.851C128.781 138.992 128.501 139.063 128.188 139.063ZM126.49 139.032V134.417H126.935V136.731L126.872 137.39L126.916 138.049V139.032H126.49ZM128.157 138.671C128.391 138.671 128.599 138.619 128.783 138.516C128.967 138.408 129.113 138.259 129.222 138.068C129.33 137.873 129.385 137.649 129.385 137.396C129.385 137.139 129.33 136.915 129.222 136.724C129.113 136.534 128.967 136.386 128.783 136.283C128.599 136.175 128.391 136.121 128.157 136.121C127.923 136.121 127.712 136.175 127.524 136.283C127.34 136.386 127.194 136.534 127.085 136.724C126.981 136.915 126.929 137.139 126.929 137.396C126.929 137.649 126.981 137.873 127.085 138.068C127.194 138.259 127.34 138.408 127.524 138.516C127.712 138.619 127.923 138.671 128.157 138.671Z" fill="#A2903E" fill-opacity="0.5"/>
<path d="M130.592 140.27C130.459 140.27 130.331 140.251 130.21 140.214C130.085 140.18 129.98 140.129 129.897 140.058L130.053 139.722C130.187 139.834 130.358 139.89 130.567 139.89C130.743 139.89 130.876 139.838 130.968 139.735C131.064 139.631 131.112 139.478 131.112 139.274V135.766H131.557V139.274C131.557 139.577 131.474 139.818 131.307 139.996C131.144 140.178 130.906 140.27 130.592 140.27ZM131.338 135.045C131.246 135.045 131.169 135.014 131.106 134.952C131.043 134.889 131.012 134.815 131.012 134.728C131.012 134.641 131.043 134.568 131.106 134.51C131.169 134.448 131.246 134.417 131.338 134.417C131.43 134.417 131.507 134.446 131.57 134.504C131.632 134.562 131.664 134.634 131.664 134.722C131.664 134.813 131.632 134.889 131.57 134.952C131.511 135.014 131.434 135.045 131.338 135.045Z" fill="#A2903E" fill-opacity="0.5"/>
<path d="M134.542 139.063C134.2 139.063 133.899 138.992 133.64 138.851C133.381 138.706 133.178 138.509 133.032 138.261C132.886 138.008 132.813 137.719 132.813 137.396C132.813 137.073 132.882 136.787 133.02 136.538C133.162 136.289 133.354 136.094 133.596 135.953C133.842 135.808 134.118 135.735 134.423 135.735C134.732 135.735 135.006 135.806 135.244 135.947C135.486 136.084 135.676 136.279 135.814 136.532C135.952 136.78 136.021 137.068 136.021 137.396C136.021 137.417 136.019 137.44 136.014 137.464C136.014 137.485 136.014 137.508 136.014 137.533H133.151V137.203H135.776L135.601 137.334C135.601 137.097 135.549 136.888 135.444 136.706C135.344 136.519 135.206 136.374 135.031 136.27C134.855 136.167 134.653 136.115 134.423 136.115C134.197 136.115 133.995 136.167 133.815 136.27C133.636 136.374 133.496 136.519 133.395 136.706C133.295 136.892 133.245 137.106 133.245 137.346V137.415C133.245 137.663 133.299 137.883 133.408 138.074C133.521 138.261 133.675 138.408 133.872 138.516C134.072 138.619 134.3 138.671 134.555 138.671C134.755 138.671 134.941 138.636 135.112 138.565C135.288 138.495 135.438 138.387 135.563 138.242L135.814 138.528C135.668 138.702 135.484 138.835 135.263 138.926C135.045 139.017 134.805 139.063 134.542 139.063Z" fill="#A2903E" fill-opacity="0.5"/>
<path d="M138.637 139.063C138.311 139.063 138.018 138.992 137.759 138.851C137.505 138.706 137.304 138.509 137.158 138.261C137.012 138.008 136.939 137.719 136.939 137.396C136.939 137.068 137.012 136.78 137.158 136.532C137.304 136.283 137.505 136.088 137.759 135.947C138.018 135.806 138.311 135.735 138.637 135.735C138.916 135.735 139.169 135.789 139.395 135.897C139.62 136.005 139.798 136.167 139.927 136.382L139.595 136.606C139.482 136.44 139.342 136.318 139.175 136.239C139.008 136.16 138.827 136.121 138.63 136.121C138.396 136.121 138.185 136.175 137.997 136.283C137.81 136.386 137.661 136.534 137.553 136.724C137.444 136.915 137.39 137.139 137.39 137.396C137.39 137.653 137.444 137.877 137.553 138.068C137.661 138.259 137.81 138.408 137.997 138.516C138.185 138.619 138.396 138.671 138.63 138.671C138.827 138.671 139.008 138.632 139.175 138.553C139.342 138.474 139.482 138.354 139.595 138.192L139.927 138.416C139.798 138.628 139.62 138.789 139.395 138.901C139.169 139.009 138.916 139.063 138.637 139.063Z" fill="#A2903E" fill-opacity="0.5"/>
<path d="M142.222 139.063C141.913 139.063 141.675 138.98 141.508 138.814C141.341 138.648 141.258 138.414 141.258 138.111V135.045H141.702V138.086C141.702 138.277 141.75 138.424 141.846 138.528C141.947 138.632 142.089 138.684 142.273 138.684C142.469 138.684 142.632 138.628 142.761 138.516L142.918 138.833C142.83 138.912 142.724 138.97 142.598 139.007C142.477 139.044 142.352 139.063 142.222 139.063ZM140.669 136.133V135.766H142.705V136.133H140.669Z" fill="#A2903E" fill-opacity="0.5"/>
<path d="M117.831 158.037V153.683H118.213L120.218 157.079H120.017L122.003 153.683H122.386V158.037H121.941V154.373H122.047L120.218 157.483H119.999L118.157 154.373H118.276V158.037H117.831Z" fill="#A2903E" fill-opacity="0.5"/>
<path d="M125.462 158.068C125.12 158.068 124.819 157.997 124.56 157.856C124.301 157.711 124.099 157.514 123.952 157.265C123.806 157.012 123.733 156.724 123.733 156.401C123.733 156.077 123.802 155.791 123.94 155.543C124.082 155.294 124.274 155.099 124.516 154.958C124.763 154.813 125.038 154.74 125.343 154.74C125.652 154.74 125.926 154.811 126.164 154.952C126.406 155.088 126.596 155.283 126.734 155.536C126.872 155.785 126.941 156.073 126.941 156.401C126.941 156.422 126.939 156.444 126.935 156.469C126.935 156.49 126.935 156.513 126.935 156.538H124.072V156.208H126.697L126.521 156.339C126.521 156.102 126.469 155.893 126.365 155.71C126.264 155.524 126.127 155.379 125.951 155.275C125.776 155.171 125.573 155.12 125.343 155.12C125.118 155.12 124.915 155.171 124.736 155.275C124.556 155.379 124.416 155.524 124.316 155.71C124.216 155.897 124.165 156.111 124.165 156.351V156.419C124.165 156.668 124.22 156.888 124.328 157.079C124.441 157.265 124.596 157.413 124.792 157.52C124.993 157.624 125.22 157.676 125.475 157.676C125.675 157.676 125.861 157.641 126.033 157.57C126.208 157.5 126.358 157.392 126.484 157.247L126.734 157.533C126.588 157.707 126.404 157.84 126.183 157.931C125.966 158.022 125.726 158.068 125.462 158.068Z" fill="#A2903E" fill-opacity="0.5"/>
<path d="M129.074 158.068C128.803 158.068 128.546 158.03 128.304 157.956C128.062 157.877 127.872 157.78 127.734 157.663L127.934 157.315C128.068 157.415 128.239 157.502 128.448 157.576C128.657 157.647 128.876 157.682 129.106 157.682C129.419 157.682 129.645 157.634 129.782 157.539C129.92 157.44 129.989 157.309 129.989 157.147C129.989 157.027 129.95 156.934 129.87 156.867C129.795 156.797 129.695 156.745 129.569 156.712C129.444 156.674 129.304 156.643 129.15 156.619C128.995 156.594 128.841 156.565 128.686 156.531C128.536 156.498 128.398 156.451 128.273 156.388C128.147 156.322 128.045 156.233 127.966 156.121C127.89 156.009 127.853 155.86 127.853 155.673C127.853 155.495 127.903 155.335 128.003 155.194C128.103 155.053 128.25 154.943 128.442 154.865C128.638 154.782 128.876 154.74 129.156 154.74C129.369 154.74 129.582 154.769 129.795 154.827C130.008 154.881 130.183 154.954 130.321 155.045L130.127 155.399C129.981 155.3 129.824 155.229 129.657 155.188C129.49 155.142 129.323 155.12 129.156 155.12C128.859 155.12 128.64 155.171 128.498 155.275C128.36 155.375 128.291 155.503 128.291 155.661C128.291 155.785 128.329 155.883 128.404 155.953C128.483 156.024 128.586 156.079 128.711 156.121C128.841 156.158 128.981 156.189 129.131 156.214C129.285 156.239 129.438 156.27 129.588 156.308C129.743 156.341 129.883 156.388 130.008 156.451C130.138 156.509 130.24 156.594 130.315 156.706C130.394 156.813 130.434 156.956 130.434 157.135C130.434 157.325 130.38 157.491 130.271 157.632C130.167 157.769 130.012 157.877 129.808 157.956C129.607 158.03 129.363 158.068 129.074 158.068Z" fill="#A2903E" fill-opacity="0.5"/>
<path d="M132.478 158.068C132.207 158.068 131.95 158.03 131.708 157.956C131.465 157.877 131.275 157.78 131.138 157.663L131.338 157.315C131.472 157.415 131.643 157.502 131.852 157.576C132.061 157.647 132.28 157.682 132.51 157.682C132.823 157.682 133.048 157.634 133.186 157.539C133.324 157.44 133.393 157.309 133.393 157.147C133.393 157.027 133.353 156.934 133.274 156.867C133.199 156.797 133.099 156.745 132.973 156.712C132.848 156.674 132.708 156.643 132.554 156.619C132.399 156.594 132.244 156.565 132.09 156.531C131.94 156.498 131.802 156.451 131.676 156.388C131.551 156.322 131.449 156.233 131.369 156.121C131.294 156.009 131.257 155.86 131.257 155.673C131.257 155.495 131.307 155.335 131.407 155.194C131.507 155.053 131.653 154.943 131.846 154.865C132.042 154.782 132.28 154.74 132.56 154.74C132.773 154.74 132.986 154.769 133.199 154.827C133.412 154.881 133.587 154.954 133.725 155.045L133.531 155.399C133.385 155.3 133.228 155.229 133.061 155.188C132.894 155.142 132.727 155.12 132.56 155.12C132.263 155.12 132.044 155.171 131.902 155.275C131.764 155.375 131.695 155.503 131.695 155.661C131.695 155.785 131.733 155.883 131.808 155.953C131.887 156.024 131.99 156.079 132.115 156.121C132.244 156.158 132.384 156.189 132.535 156.214C132.689 156.239 132.842 156.27 132.992 156.308C133.147 156.341 133.287 156.388 133.412 156.451C133.541 156.509 133.644 156.594 133.719 156.706C133.798 156.813 133.838 156.956 133.838 157.135C133.838 157.325 133.784 157.491 133.675 157.632C133.571 157.769 133.416 157.877 133.211 157.956C133.011 158.03 132.767 158.068 132.478 158.068Z" fill="#A2903E" fill-opacity="0.5"/>
<path d="M137.06 158.037V157.315L137.041 157.197V155.99C137.041 155.713 136.962 155.499 136.803 155.35C136.649 155.2 136.417 155.126 136.108 155.126C135.895 155.126 135.692 155.161 135.5 155.232C135.308 155.302 135.145 155.395 135.011 155.511L134.811 155.182C134.978 155.041 135.178 154.933 135.412 154.858C135.646 154.78 135.893 154.74 136.152 154.74C136.578 154.74 136.906 154.846 137.135 155.057C137.369 155.265 137.486 155.582 137.486 156.009V158.037H137.06ZM135.926 158.068C135.68 158.068 135.464 158.028 135.281 157.95C135.101 157.867 134.963 157.755 134.867 157.614C134.771 157.469 134.723 157.303 134.723 157.116C134.723 156.946 134.763 156.793 134.842 156.656C134.926 156.515 135.059 156.403 135.243 156.32C135.431 156.233 135.682 156.189 135.995 156.189H137.129V156.519H136.007C135.69 156.519 135.469 156.575 135.343 156.687C135.222 156.799 135.162 156.938 135.162 157.104C135.162 157.29 135.235 157.44 135.381 157.551C135.527 157.663 135.732 157.719 135.995 157.719C136.246 157.719 136.461 157.663 136.64 157.551C136.824 157.435 136.958 157.27 137.041 157.054L137.142 157.359C137.058 157.574 136.912 157.746 136.703 157.875C136.498 158.003 136.239 158.068 135.926 158.068Z" fill="#A2903E" fill-opacity="0.5"/>
<path d="M140.442 159.274C140.142 159.274 139.853 159.231 139.578 159.144C139.302 159.057 139.079 158.932 138.907 158.771L139.133 158.435C139.287 158.572 139.478 158.679 139.703 158.758C139.933 158.841 140.175 158.883 140.43 158.883C140.848 158.883 141.155 158.785 141.351 158.59C141.547 158.399 141.645 158.101 141.645 157.695V156.88L141.708 156.32L141.664 155.76V154.771H142.09V157.639C142.09 158.202 141.95 158.615 141.67 158.876C141.395 159.142 140.985 159.274 140.442 159.274ZM140.361 157.912C140.048 157.912 139.766 157.846 139.515 157.713C139.264 157.576 139.066 157.388 138.92 157.147C138.778 156.907 138.707 156.631 138.707 156.32C138.707 156.009 138.778 155.735 138.92 155.499C139.066 155.258 139.264 155.072 139.515 154.939C139.766 154.807 140.048 154.74 140.361 154.74C140.653 154.74 140.916 154.8 141.15 154.921C141.384 155.041 141.57 155.219 141.708 155.455C141.846 155.692 141.915 155.98 141.915 156.32C141.915 156.66 141.846 156.948 141.708 157.185C141.57 157.421 141.384 157.601 141.15 157.726C140.916 157.85 140.653 157.912 140.361 157.912ZM140.405 157.52C140.647 157.52 140.862 157.471 141.05 157.371C141.238 157.267 141.386 157.126 141.495 156.948C141.604 156.766 141.658 156.556 141.658 156.32C141.658 156.084 141.604 155.876 141.495 155.698C141.386 155.52 141.238 155.381 141.05 155.281C140.862 155.178 140.647 155.126 140.405 155.126C140.167 155.126 139.952 155.178 139.759 155.281C139.571 155.381 139.423 155.52 139.315 155.698C139.21 155.876 139.158 156.084 139.158 156.32C139.158 156.556 139.21 156.766 139.315 156.948C139.423 157.126 139.571 157.267 139.759 157.371C139.952 157.471 140.167 157.52 140.405 157.52Z" fill="#A2903E" fill-opacity="0.5"/>
<path d="M145.07 158.068C144.727 158.068 144.427 157.997 144.168 157.856C143.909 157.711 143.706 157.514 143.56 157.265C143.414 157.012 143.341 156.724 143.341 156.401C143.341 156.077 143.409 155.791 143.547 155.543C143.689 155.294 143.881 155.099 144.124 154.958C144.37 154.813 144.646 154.74 144.951 154.74C145.26 154.74 145.533 154.811 145.771 154.952C146.014 155.088 146.204 155.283 146.342 155.536C146.479 155.785 146.548 156.073 146.548 156.401C146.548 156.422 146.546 156.444 146.542 156.469C146.542 156.49 146.542 156.513 146.542 156.538H143.679V156.208H146.304L146.129 156.339C146.129 156.102 146.076 155.893 145.972 155.71C145.872 155.524 145.734 155.379 145.558 155.275C145.383 155.171 145.18 155.12 144.951 155.12C144.725 155.12 144.523 155.171 144.343 155.275C144.163 155.379 144.023 155.524 143.923 155.71C143.823 155.897 143.773 156.111 143.773 156.351V156.419C143.773 156.668 143.827 156.888 143.936 157.079C144.049 157.265 144.203 157.413 144.399 157.52C144.6 157.624 144.828 157.676 145.082 157.676C145.283 157.676 145.469 157.641 145.64 157.57C145.815 157.5 145.966 157.392 146.091 157.247L146.342 157.533C146.195 157.707 146.012 157.84 145.79 157.931C145.573 158.022 145.333 158.068 145.07 158.068Z" fill="#A2903E" fill-opacity="0.5"/>
<path d="M187.446 101.022V96.6685H187.909V100.624H190.365V101.022H187.446Z" fill="#A2903E" fill-opacity="0.5"/>
<path d="M193.447 101.022V100.301L193.428 100.183V98.976C193.428 98.6982 193.349 98.4846 193.19 98.3353C193.036 98.1861 192.804 98.1114 192.495 98.1114C192.282 98.1114 192.079 98.1467 191.887 98.2172C191.695 98.2877 191.532 98.381 191.398 98.4971L191.198 98.1674C191.365 98.0264 191.565 97.9186 191.799 97.844C192.033 97.7652 192.28 97.7258 192.539 97.7258C192.965 97.7258 193.293 97.8315 193.522 98.043C193.756 98.2503 193.873 98.5676 193.873 98.9946V101.022H193.447ZM192.313 101.053C192.067 101.053 191.851 101.014 191.668 100.935C191.488 100.852 191.35 100.74 191.254 100.599C191.158 100.454 191.11 100.288 191.11 100.102C191.11 99.9317 191.15 99.7783 191.229 99.6415C191.313 99.5005 191.446 99.3886 191.63 99.3056C191.818 99.2186 192.069 99.175 192.382 99.175H193.516V99.5047H192.394C192.077 99.5047 191.856 99.5606 191.73 99.6726C191.609 99.7845 191.549 99.9235 191.549 100.089C191.549 100.276 191.622 100.425 191.768 100.537C191.914 100.649 192.119 100.705 192.382 100.705C192.633 100.705 192.848 100.649 193.027 100.537C193.211 100.421 193.345 100.255 193.428 100.04L193.529 100.344C193.445 100.56 193.299 100.732 193.09 100.861C192.885 100.989 192.626 101.053 192.313 101.053Z" fill="#A2903E" fill-opacity="0.5"/>
<path d="M196.309 101.053C196.038 101.053 195.781 101.016 195.539 100.941C195.296 100.863 195.106 100.765 194.969 100.649L195.169 100.301C195.303 100.4 195.474 100.487 195.683 100.562C195.892 100.633 196.111 100.668 196.341 100.668C196.654 100.668 196.879 100.62 197.017 100.525C197.155 100.425 197.224 100.295 197.224 100.133C197.224 100.013 197.184 99.9193 197.105 99.853C197.03 99.7825 196.93 99.7306 196.804 99.6975C196.679 99.6602 196.539 99.6291 196.385 99.6042C196.23 99.5793 196.075 99.5503 195.921 99.5171C195.771 99.4839 195.633 99.4362 195.507 99.374C195.382 99.3077 195.28 99.2186 195.2 99.1066C195.125 98.9946 195.088 98.8454 195.088 98.6588C195.088 98.4805 195.138 98.3208 195.238 98.1799C195.338 98.0389 195.484 97.929 195.677 97.8502C195.873 97.7673 196.111 97.7258 196.391 97.7258C196.604 97.7258 196.817 97.7548 197.03 97.8129C197.243 97.8668 197.418 97.9394 197.556 98.0306L197.362 98.3851C197.216 98.2856 197.059 98.2151 196.892 98.1736C196.725 98.128 196.558 98.1052 196.391 98.1052C196.094 98.1052 195.875 98.157 195.733 98.2607C195.595 98.3602 195.526 98.4888 195.526 98.6463C195.526 98.7707 195.564 98.8682 195.639 98.9387C195.718 99.0092 195.821 99.0651 195.946 99.1066C196.075 99.1439 196.215 99.175 196.366 99.1999C196.52 99.2248 196.673 99.2559 196.823 99.2932C196.978 99.3264 197.118 99.374 197.243 99.4362C197.372 99.4943 197.475 99.5793 197.55 99.6913C197.629 99.7991 197.669 99.9421 197.669 100.12C197.669 100.311 197.615 100.477 197.506 100.618C197.402 100.755 197.247 100.863 197.042 100.941C196.842 101.016 196.598 101.053 196.309 101.053Z" fill="#A2903E" fill-opacity="0.5"/>
<path d="M199.87 101.053C199.561 101.053 199.323 100.97 199.156 100.805C198.989 100.639 198.905 100.404 198.905 100.102V97.0354H199.35V100.077C199.35 100.268 199.398 100.415 199.494 100.518C199.594 100.622 199.736 100.674 199.92 100.674C200.116 100.674 200.279 100.618 200.409 100.506L200.565 100.823C200.478 100.902 200.371 100.96 200.246 100.997C200.125 101.035 199.999 101.053 199.87 101.053ZM198.316 98.1239V97.7569H200.352V98.1239H198.316Z" fill="#A2903E" fill-opacity="0.5"/>
<path d="M164.803 195.873H203.961V207.795H164.803V195.873Z" fill="#F7DB5F"/>
</svg>
